HIERARCHY
ROOT Hips
{
  OFFSET 5.72205e-005 65.662 3.42586
  CHANNELS 6 Xposition Yposition Zposition Zrotation Xrotation Yrotation
  JOINT Chest
  {
    OFFSET 0 8.7983 -4.7612
    CHANNELS 6 Xposition Yposition Zposition Zrotation Xrotation Yrotation
    JOINT Chest2
    {
      OFFSET 0 8.0291 0.4195
      CHANNELS 6 Xposition Yposition Zposition Zrotation Xrotation Yrotation
      JOINT Chest3
      {
        OFFSET 0 9.9351 -2.2114
        CHANNELS 6 Xposition Yposition Zposition Zrotation Xrotation Yrotation
        JOINT Neck
        {
          OFFSET 0 22.3885 -0.4656
          CHANNELS 6 Xposition Yposition Zposition Zrotation Xrotation Yrotation
          JOINT Head
          {
            OFFSET -0.0001 12.643 3.4389
            CHANNELS 6 Xposition Yposition Zposition Zrotation Xrotation Yrotation
            End Site
            {
              OFFSET 0.0001 17.6655 0.5274
            }
          }
        }
        JOINT LeftCollar
        {
          OFFSET 2.2603 21.606 7.4023
          CHANNELS 6 Xposition Yposition Zposition Zrotation Xrotation Yrotation
          JOINT LeftShoulder
          {
            OFFSET 13.5163 -1.1332 -5.0146
            CHANNELS 6 Xposition Yposition Zposition Zrotation Xrotation Yrotation
            JOINT LeftElbow
            {
              OFFSET -0.0995 -28.05 -0.2431
              CHANNELS 6 Xposition Yposition Zposition Zrotation Xrotation Yrotation
              JOINT LeftWrist
              {
                OFFSET 0.0679 -23.3996 -0.1402
                CHANNELS 6 Xposition Yposition Zposition Zrotation Xrotation Yrotation
                JOINT LeftFinger1
                {
                  OFFSET 0.7932 -9.069 2.5189
                  CHANNELS 6 Xposition Yposition Zposition Zrotation Xrotation Yrotation
                  JOINT LeftFinger11
                  {
                    OFFSET -0.8272 -3.3923 0.5977
                    CHANNELS 6 Xposition Yposition Zposition Zrotation Xrotation Yrotation
                    JOINT LeftFinger12
                    {
                      OFFSET -0.5649 -2.3158 0.4082
                      CHANNELS 6 Xposition Yposition Zposition Zrotation Xrotation Yrotation
                      End Site
                      {
                        OFFSET -0.4919 -1.6479 0.2673
                      }
                    }
                  }
                }
                JOINT LeftFinger2
                {
                  OFFSET 0.9159 -9.2044 0.2193
                  CHANNELS 6 Xposition Yposition Zposition Zrotation Xrotation Yrotation
                  JOINT LeftFinger21
                  {
                    OFFSET 0.0117 -4.1944 -0.0248
                    CHANNELS 6 Xposition Yposition Zposition Zrotation Xrotation Yrotation
                    JOINT LeftFinger22
                    {
                      OFFSET 0.0071 -2.3249 -0.0142
                      CHANNELS 6 Xposition Yposition Zposition Zrotation Xrotation Yrotation
                      End Site
                      {
                        OFFSET -0.1475 -2.0882 0.0028
                      }
                    }
                  }
                }
                JOINT LeftFinger3
                {
                  OFFSET 0.6113 -8.7231 -2.0637
                  CHANNELS 6 Xposition Yposition Zposition Zrotation Xrotation Yrotation
                  JOINT LeftFinger31
                  {
                    OFFSET -0.1927 -3.8059 -0.2383
                    CHANNELS 6 Xposition Yposition Zposition Zrotation Xrotation Yrotation
                    JOINT LeftFinger32
                    {
                      OFFSET -0.1091 -2.1688 -0.1362
                      CHANNELS 6 Xposition Yposition Zposition Zrotation Xrotation Yrotation
                      End Site
                      {
                        OFFSET -0.2358 -1.9176 -0.0906
                      }
                    }
                  }
                }
                JOINT LeftFinger4
                {
                  OFFSET -0.6151 -8.0947 -3.5641
                  CHANNELS 6 Xposition Yposition Zposition Zrotation Xrotation Yrotation
                  JOINT LeftFinger41
                  {
                    OFFSET -0.4882 -2.341 -0.6462
                    CHANNELS 6 Xposition Yposition Zposition Zrotation Xrotation Yrotation
                    JOINT LeftFinger42
                    {
                      OFFSET -0.3575 -1.7167 -0.4742
                      CHANNELS 6 Xposition Yposition Zposition Zrotation Xrotation Yrotation
                      End Site
                      {
                        OFFSET -0.4187 -1.5237 -0.3496
                      }
                    }
                  }
                }
                JOINT LeftFinger0
                {
                  OFFSET -1.42 -1.8761 1.4223
                  CHANNELS 6 Xposition Yposition Zposition Zrotation Xrotation Yrotation
                  JOINT LeftFinger01
                  {
                    OFFSET -1.1471 -3.4929 2.6334
                    CHANNELS 6 Xposition Yposition Zposition Zrotation Xrotation Yrotation
                    JOINT LeftFinger02
                    {
                      OFFSET -0.823 -2.3 1.6571
                      CHANNELS 6 Xposition Yposition Zposition Zrotation Xrotation Yrotation
                      End Site
                      {
                        OFFSET -0.5822 -1.6914 1.1582
                      }
                    }
                  }
                }
              }
            }
          }
        }
        JOINT RightCollar
        {
          OFFSET -2.2603 21.606 7.4023
          CHANNELS 6 Xposition Yposition Zposition Zrotation Xrotation Yrotation
          JOINT RightShoulder
          {
            OFFSET -13.5187 -1.1334 -5.0155
            CHANNELS 6 Xposition Yposition Zposition Zrotation Xrotation Yrotation
            JOINT RightElbow
            {
              OFFSET 0.0994 -28.0499 -0.2431
              CHANNELS 6 Xposition Yposition Zposition Zrotation Xrotation Yrotation
              JOINT RightWrist
              {
                OFFSET -0.0679 -23.3996 -0.1402
                CHANNELS 6 Xposition Yposition Zposition Zrotation Xrotation Yrotation
                JOINT RightFinger1
                {
                  OFFSET -0.7932 -9.0691 2.5189
                  CHANNELS 6 Xposition Yposition Zposition Zrotation Xrotation Yrotation
                  JOINT RightFinger11
                  {
                    OFFSET 0.8272 -3.3923 0.5977
                    CHANNELS 6 Xposition Yposition Zposition Zrotation Xrotation Yrotation
                    JOINT RightFinger12
                    {
                      OFFSET 0.565 -2.3158 0.4082
                      CHANNELS 6 Xposition Yposition Zposition Zrotation Xrotation Yrotation
                      End Site
                      {
                        OFFSET 0.4919 -1.6479 0.2673
                      }
                    }
                  }
                }
                JOINT RightFinger2
                {
                  OFFSET -0.916 -9.2044 0.2193
                  CHANNELS 6 Xposition Yposition Zposition Zrotation Xrotation Yrotation
                  JOINT RightFinger21
                  {
                    OFFSET -0.0117 -4.1944 -0.0248
                    CHANNELS 6 Xposition Yposition Zposition Zrotation Xrotation Yrotation
                    JOINT RightFinger22
                    {
                      OFFSET -0.0071 -2.3249 -0.0142
                      CHANNELS 6 Xposition Yposition Zposition Zrotation Xrotation Yrotation
                      End Site
                      {
                        OFFSET 0.1475 -2.0882 0.0028
                      }
                    }
                  }
                }
                JOINT RightFinger3
                {
                  OFFSET -0.6113 -8.7231 -2.0637
                  CHANNELS 6 Xposition Yposition Zposition Zrotation Xrotation Yrotation
                  JOINT RightFinger31
                  {
                    OFFSET 0.1927 -3.8059 -0.2383
                    CHANNELS 6 Xposition Yposition Zposition Zrotation Xrotation Yrotation
                    JOINT RightFinger32
                    {
                      OFFSET 0.1091 -2.1688 -0.1362
                      CHANNELS 6 Xposition Yposition Zposition Zrotation Xrotation Yrotation
                      End Site
                      {
                        OFFSET 0.2358 -1.9176 -0.0906
                      }
                    }
                  }
                }
                JOINT RightFinger4
                {
                  OFFSET 0.6151 -8.0947 -3.564
                  CHANNELS 6 Xposition Yposition Zposition Zrotation Xrotation Yrotation
                  JOINT RightFinger41
                  {
                    OFFSET 0.4882 -2.341 -0.6462
                    CHANNELS 6 Xposition Yposition Zposition Zrotation Xrotation Yrotation
                    JOINT RightFinger42
                    {
                      OFFSET 0.3574 -1.7166 -0.4742
                      CHANNELS 6 Xposition Yposition Zposition Zrotation Xrotation Yrotation
                      End Site
                      {
                        OFFSET 0.4187 -1.5237 -0.3496
                      }
                    }
                  }
                }
                JOINT RightFinger0
                {
                  OFFSET 1.4199 -1.8761 1.4221
                  CHANNELS 6 Xposition Yposition Zposition Zrotation Xrotation Yrotation
                  JOINT RightFinger01
                  {
                    OFFSET 1.1472 -3.4929 2.6336
                    CHANNELS 6 Xposition Yposition Zposition Zrotation Xrotation Yrotation
                    JOINT RightFinger02
                    {
                      OFFSET 0.8229 -2.3 1.6571
                      CHANNELS 6 Xposition Yposition Zposition Zrotation Xrotation Yrotation
                      End Site
                      {
                        OFFSET 0.5822 -1.6914 1.1582
                      }
                    }
                  }
                }
              }
            }
          }
        }
      }
    }
  }
  JOINT RightHip
  {
    OFFSET -9.412 3.9771 -0.7758
    CHANNELS 6 Xposition Yposition Zposition Zrotation Xrotation Yrotation
    JOINT RightKnee
    {
      OFFSET -0.7531 -40.938 0
      CHANNELS 6 Xposition Yposition Zposition Zrotation Xrotation Yrotation
      JOINT RightAnkle
      {
        OFFSET 0 -40.1986 0
        CHANNELS 6 Xposition Yposition Zposition Zrotation Xrotation Yrotation
        JOINT RightToe
        {
          OFFSET 0 -4.4182 9.239
          CHANNELS 6 Xposition Yposition Zposition Zrotation Xrotation Yrotation
          End Site
          {
            OFFSET 0 0 6.1981
          }
        }
      }
    }
  }
  JOINT LeftHip
  {
    OFFSET 9.4119 3.9773 -0.7758
    CHANNELS 6 Xposition Yposition Zposition Zrotation Xrotation Yrotation
    JOINT LeftKnee
    {
      OFFSET 0.7532 -40.9383 0
      CHANNELS 6 Xposition Yposition Zposition Zrotation Xrotation Yrotation
      JOINT LeftAnkle
      {
        OFFSET 0 -40.1986 0
        CHANNELS 6 Xposition Yposition Zposition Zrotation Xrotation Yrotation
        JOINT LeftToe
        {
          OFFSET 0 -4.4182 9.239
          CHANNELS 6 Xposition Yposition Zposition Zrotation Xrotation Yrotation
          End Site
          {
            OFFSET 0 0 6.1981
          }
        }
      }
    }
  }
}
MOTION
Frames:	4
Frame Time:	0.0333333
5.72205e-005 65.662 3.42586 0 0 -0 0 8.7983 -4.7612 0 0 -0 0 8.0291 0.4195 0 0 -0 0 9.9351 -2.2114 0 0 -0 0 22.3885 -0.4656 0 0 -0 -0.0001 12.643 3.4389 0 0 -0 2.2603 21.606 7.4023 0 0 -12.5014 13.5163 -1.1332 -5.0146 88.1196 14.2451 10.6914 -0.0995 -28.05 -0.2431 -0.00160068 -0.00239207 0.000740045 0.0679 -23.3996 -0.1402 -8.4365e-005 7.00714e-005 -9.52055e-007 0.7932 -9.069 2.5189 9.93923e-017 -1.98785e-016 -1.59028e-015 -0.8272 -3.3923 0.5977 9.93923e-017 -5.96354e-016 -1.59028e-015 -0.5649 -2.3158 0.4082 -9.93923e-017 -5.96354e-016 -1.59028e-015 0.9159 -9.2044 0.2193 9.93923e-017 -1.98785e-016 -1.59028e-015 0.0117 -4.1944 -0.0248 -0.0128176 0.00232552 8.52707e-005 0.0071 -2.3249 -0.0142 9.93923e-017 5.96354e-016 -0 0.6113 -8.7231 -2.0637 9.93923e-017 -1.98785e-016 -1.59028e-015 -0.1927 -3.8059 -0.2383 -0.0160551 0.00299681 0.000857156 -0.1091 -2.1688 -0.1362 -2.48481e-016 0 3.18055e-015 -0.6151 -8.0947 -3.5641 9.93923e-017 -1.98785e-016 -1.59028e-015 -0.4882 -2.341 -0.6462 -0.0125865 0.0031206 0.00282719 -0.3575 -1.7167 -0.4742 0 1.98785e-016 -0 -1.42 -1.8761 1.4223 9.93923e-017 -1.98785e-016 -1.59028e-015 -1.1471 -3.4929 2.6334 9.93923e-017 -5.96354e-016 -1.59028e-015 -0.823 -2.3 1.6571 -9.93923e-017 -5.96354e-016 -1.59028e-015 -2.2603 21.606 7.4023 -0.865644 0.16582 7.03859 -13.5187 -1.1334 -5.0155 -88.0329 10.2057 -10.5567 0.0994 -28.0499 -0.2431 0.0015593 -0.00248883 -0.000788628 -0.0679 -23.3996 -0.1402 7.87605e-005 4.10553e-005 1.24965e-005 -0.7932 -9.0691 2.5189 -3.97569e-016 -7.95139e-016 3.18055e-015 0.8272 -3.3923 0.5977 -1.98785e-016 -3.97569e-016 3.18055e-015 0.565 -2.3158 0.4082 -1.98785e-016 0 3.18055e-015 -0.916 -9.2044 0.2193 -3.97569e-016 -7.95139e-016 3.18055e-015 -0.0117 -4.1944 -0.0248 0.0129473 0.00231697 -8.70038e-005 -0.0071 -2.3249 -0.0142 9.93923e-017 -7.95139e-016 1.59028e-015 -0.6113 -8.7231 -2.0637 -3.97569e-016 -7.95139e-016 3.18055e-015 0.1927 -3.8059 -0.2383 0.0163314 0.00303369 -0.000872333 0.1091 -2.1688 -0.1362 3.97569e-016 7.95139e-016 -3.18055e-015 0.6151 -8.0947 -3.564 -3.97569e-016 -7.95139e-016 3.18055e-015 0.4882 -2.341 -0.6462 0.0145763 0.00367772 -0.00326275 0.3574 -1.7166 -0.4742 9.93923e-017 -3.97569e-016 -0 1.4199 -1.8761 1.4221 -3.97569e-016 -7.95139e-016 3.18055e-015 1.1472 -3.4929 2.6336 -1.98785e-016 -3.97569e-016 3.18055e-015 0.8229 -2.3 1.6571 -1.98785e-016 0 3.18055e-015 -9.412 3.9771 -0.7758 3.42482 1.32465 -0.0626183 -0.7531 -40.938 0 0.000117508 0.717283 0.000978199 0 -40.1986 0 -3.4257 -2.04197 -0.0604716 8.88178e-016 -4.4182 9.239 6.47761e-025 0 -0 9.4119 3.9773 -0.7758 -3.42483 1.34017 0.0627307 0.7532 -40.9383 -2.22045e-016 -0.000193936 0.682302 -0.0013703 -8.88179e-016 -40.1986 0 3.42574 -2.02253 0.0595886 -8.88178e-016 -4.4182 9.239 -8.45714e-024 0 -7.40531e-025 
-44.991 91.2634 5.03889 -133.333 -5.18128 -4.07206e-006 7.10543e-015 8.7983 -4.7612 -0.0816964 -2.42039 -0.180989 7.10543e-015 8.0291 0.4195 -0.171163 -4.84047 -0.365919 -7.10543e-015 9.9351 -2.2114 -0.17116 -4.8405 -0.365923 0 22.3885 -0.4656 -7.7743e-006 19.9576 2.56289e-006 -0.0001 12.643 3.4389 -7.26826e-006 -27.9196 -1.86904e-007 2.2603 21.606 7.4023 -11.951 5.49117 -5.4633 13.5163 -1.1332 -5.0146 87.2204 -41.0944 3.02515 -0.0995 -28.05 -0.2431 -15.425 -37.9036 5.11629 0.0679 -23.3996 -0.1402 -15.8717 -8.74998 35.6975 0.7932 -9.06901 2.5189 6.36111e-015 -3.97569e-016 2.48481e-015 -0.8272 -3.3923 0.5977 -8.4351e-006 8.16876e-006 -3.3598e-006 -0.5649 -2.3158 0.4082 3.18055e-015 6.95746e-015 -1.64991e-014 0.9159 -9.20441 0.2193 6.36111e-015 -3.97569e-016 2.48481e-015 0.0117 -4.1944 -0.0248 -0.0128193 0.00234155 8.32607e-005 0.0071 -2.3249 -0.0142 2.54738e-006 -1.21002e-005 4.52769e-006 0.6113 -8.72311 -2.0637 6.36111e-015 -3.97569e-016 2.48481e-015 -0.1927 -3.8059 -0.2383 -0.0160354 0.00299522 0.000866777 -0.1091 -2.1688 -0.1362 -3.18055e-015 -5.96354e-016 -4.96962e-016 -0.6151 -8.09471 -3.5641 6.36111e-015 -3.97569e-016 2.48481e-015 -0.4882 -2.341 -0.6462 -0.0125861 0.00312951 0.00282796 -0.3575 -1.7167 -0.4742 2.54733e-006 -8.64862e-006 4.52786e-006 -1.42 -1.8761 1.4223 6.36111e-015 -3.97569e-016 2.48481e-015 -1.1471 -3.4929 2.6334 -8.4351e-006 8.16876e-006 -3.3598e-006 -0.823 -2.3 1.6571 3.18055e-015 6.95746e-015 -1.64991e-014 -2.2603 21.606 7.4023 11.8446 5.65895 0.106591 -13.5187 -1.1334 -5.0155 -95.2444 -34.0132 -4.414 0.0994 -28.0499 -0.2431 16.9191 -44.7403 -3.93312 -0.0679 -23.3996 -0.1402 19.9535 -11.7644 -33.1479 -0.7932 -9.0691 2.5189 -4.89115e-006 1.05425e-005 1.29968e-006 0.8272 -3.3923 0.5977 -7.39572e-006 -2.20638e-006 3.90249e-006 0.565 -2.3158 0.4082 -2.75869e-033 -7.95139e-016 -1.98785e-016 -0.916 -9.2044 0.2193 -4.89115e-006 1.05425e-005 1.29968e-006 -0.0117 -4.1944 -0.0248 0.0129066 0.00229592 -8.08609e-005 -0.0071 -2.3249 -0.0142 -9.27373e-006 5.89943e-006 -4.27404e-006 -0.6113 -8.7231 -2.0637 -4.89115e-006 1.05425e-005 1.29968e-006 0.1927 -3.8059 -0.2383 0.0163063 0.00301371 -0.000864469 0.1091 -2.1688 -0.1362 -6.67566e-006 9.46647e-006 -3.64832e-006 0.6151 -8.0947 -3.564 -4.89115e-006 1.05425e-005 1.29968e-006 0.4882 -2.341 -0.6462 0.014589 0.00367679 -0.00325827 0.3574 -1.7166 -0.4742 -2.50528e-006 7.1265e-006 2.60277e-006 1.4199 -1.8761 1.4221 -4.89115e-006 1.05425e-005 1.29968e-006 1.1472 -3.4929 2.6336 -7.39572e-006 -2.20638e-006 3.90249e-006 0.8229 -2.3 1.6571 -2.75869e-033 -7.95139e-016 -1.98785e-016 -9.412 3.9771 -0.7758 -21.7562 -41.8574 -26.9045 -0.7531 -40.938 2.13163e-014 78.5203 52.6821 -80.8362 1.42109e-014 -40.1986 0 -17.2465 8.45518 23.1873 0 -4.4182 9.239 4.06951e-007 1.47094e-006 1.08911e-006 9.4119 3.9773 -0.7758 10.5218 -41.3891 11.2638 0.7532 -40.9383 0 -80.677 53.6882 89.3182 3.55271e-015 -40.1986 0 15.7436 5.45522 -21.9332 0 -4.4182 9.239 -2.38542e-015 9.54166e-015 -1.59028e-015 
-53.4439 97.4466 6.05015 166.667 -7.51338 1.82998e-006 1.42109e-014 8.7983 -4.7612 -0.127414 -3.42522 -0.261257 0 8.0291 0.4195 -0.271263 -6.8498 -0.53159 0 9.9351 -2.2114 -0.271272 -6.84982 -0.531591 0 22.3885 -0.4656 4.2565e-006 29.136 3.20449e-006 -0.0001 12.643 3.4389 -1.45559e-006 -41.6197 2.96705e-007 2.2603 21.606 7.4023 -17.8163 7.57316 -1.53099 13.5163 -1.1332 -5.0146 85.6961 -66.1492 -1.10168 -0.0995 -28.05 -0.2431 -26.8825 -55.0791 2.45512 0.0679 -23.3996 -0.1402 -22.5893 -12.818 51.8997 0.7932 -9.069 2.5189 -3.18055e-015 -3.97569e-016 -0 -0.8272 -3.3923 0.5977 -4.76087e-006 -1.38126e-005 -8.76341e-007 -0.5649 -2.3158 0.4082 -3.18055e-015 3.97569e-016 1.59028e-015 0.9159 -9.2044 0.2193 -3.18055e-015 -3.97569e-016 -0 0.0117 -4.1944 -0.0248 -0.0128411 0.00233467 8.15706e-005 0.0071 -2.3249 -0.0142 -3.18055e-015 6.36111e-015 -0 0.6113 -8.7231 -2.0637 -3.18055e-015 -3.97569e-016 -0 -0.1927 -3.8059 -0.2383 -0.0160577 0.00300221 0.000853783 -0.1091 -2.1688 -0.1362 1.82074e-031 1.31198e-014 -7.95139e-016 -0.6151 -8.0947 -3.5641 -3.18055e-015 -3.97569e-016 -0 -0.4882 -2.341 -0.6462 -0.012623 0.00311893 0.00283288 -0.3575 -1.7167 -0.4742 1.11807e-006 4.16155e-006 -1.97084e-006 -1.42 -1.8761 1.4223 -3.18055e-015 -3.97569e-016 -0 -1.1471 -3.4929 2.6334 -4.76087e-006 -1.38126e-005 -8.76341e-007 -0.823 -2.3 1.6571 -3.18055e-015 3.97569e-016 1.59028e-015 -2.2603 21.606 7.4023 18.0019 7.64292 -3.74389 -13.5187 -1.1334 -5.0155 -96.7329 -54.7092 -0.673237 0.0994 -28.0499 -0.2431 33.6218 -64.1493 4.0543 -0.0679 -23.3996 -0.1402 28.6596 -17.2697 -48.0867 -0.7932 -9.0691 2.5189 9.54166e-015 6.16232e-015 -1.19271e-015 0.8272 -3.3923 0.5977 6.36111e-015 6.75868e-015 1.19271e-015 0.565 -2.3158 0.4082 -1.12693e-030 8.54774e-015 7.55382e-015 -0.916 -9.2044 0.2193 9.54166e-015 6.16232e-015 -1.19271e-015 -0.0117 -4.1944 -0.0248 0.0129723 0.00233244 -8.86662e-005 -0.0071 -2.3249 -0.0142 -6.36111e-015 -7.55382e-015 2.38542e-015 -0.6113 -8.7231 -2.0637 9.54166e-015 6.16232e-015 -1.19271e-015 0.1927 -3.8059 -0.2383 0.0163516 0.00304913 -0.000868964 0.1091 -2.1688 -0.1362 -5.10358e-031 -7.35503e-015 -3.97569e-015 0.6151 -8.0947 -3.564 9.54166e-015 6.16232e-015 -1.19271e-015 0.4882 -2.341 -0.6462 0.0146016 0.00368672 -0.00326617 0.3574 -1.7166 -0.4742 -3.18055e-015 -2.38542e-015 -4.77083e-015 1.4199 -1.8761 1.4221 9.54166e-015 6.16232e-015 -1.19271e-015 1.1472 -3.4929 2.6336 6.36111e-015 6.75868e-015 1.19271e-015 0.8229 -2.3 1.6571 -1.12693e-030 8.54774e-015 7.55382e-015 -9.412 3.9771 -0.7758 -48.5143 -55.1645 -48.48 -0.7531 -40.938 0 127.142 32.3429 -112.867 1.77636e-014 -40.1986 0 -27.5397 9.08923 33.1004 -1.06581e-014 -4.4182 9.23901 -5.11589e-007 -4.3021e-006 6.70169e-007 9.4119 3.9773 -0.7758 20.6756 -58.4222 16.346 0.7532 -40.9383 -1.42109e-014 -122.656 30.5641 115.371 0 -40.1986 -1.42109e-014 23.8693 7.59699 -31.6842 -1.42109e-014 -4.4182 9.23901 3.36894e-007 3.59489e-006 -2.31646e-006 
-51.6108 96.9566 5.832 -180 -6.99618 2.25299e-007 0 8.7983 -4.7612 -0.117466 -3.01433 -0.242718 7.10543e-015 8.0291 0.4195 -0.248254 -6.0281 -0.492659 0 9.9351 -2.2114 -0.248254 -6.02811 -0.49266 0 22.3885 -0.4656 -6.24552e-007 27.535 1.01261e-005 -0.0001 12.643 3.4389 6.3888e-007 -41.1031 5.63674e-007 2.2603 21.606 7.4023 -16.5604 6.40403 -0.823012 13.5163 -1.1332 -5.0146 86.4066 -60.9291 0.60928 -0.0995 -28.05 -0.2431 -24.9733 -52.6156 2.55321 0.0679 -23.3996 -0.1402 -20.7814 -11.8907 48.3851 0.7932 -9.069 2.5189 -4.63529e-006 4.79992e-006 -3.437e-006 -0.8272 -3.3923 0.5977 1.91026e-006 -1.67609e-005 1.37702e-006 -0.5649 -2.3158 0.4082 -1.23007e-005 2.07974e-005 -4.82608e-007 0.9159 -9.2044 0.2193 -4.63529e-006 4.79992e-006 -3.437e-006 0.0117 -4.1944 -0.0248 -0.0128205 0.0023245 8.90318e-005 0.0071 -2.3249 -0.0142 -2.78647e-006 2.69347e-008 -3.69812e-007 0.6113 -8.7231 -2.0637 -4.63529e-006 4.79992e-006 -3.437e-006 -0.1927 -3.8059 -0.2383 -0.0159874 0.00297293 0.000838718 -0.1091 -2.1688 -0.1362 -4.75709e-006 1.63092e-007 -5.67137e-008 -0.6151 -8.0947 -3.5641 -4.63529e-006 4.79992e-006 -3.437e-006 -0.4882 -2.341 -0.6462 -0.0126576 0.00312604 0.00284601 -0.3575 -1.7167 -0.4742 -1.22396e-005 1.84534e-005 -2.17355e-006 -1.42 -1.8761 1.4223 -4.63529e-006 4.79992e-006 -3.437e-006 -1.1471 -3.4929 2.6334 1.91026e-006 -1.67609e-005 1.37702e-006 -0.823 -2.3 1.6571 -1.23007e-005 2.07974e-005 -4.82608e-007 -2.2603 21.606 7.4023 16.5879 6.2731 -4.39369 -13.5187 -1.1334 -5.0155 -95.0504 -51.8117 -0.814871 0.0994 -28.0499 -0.2431 29.1984 -60.6326 1.48013 -0.0679 -23.3996 -0.1402 26.3722 -15.902 -44.9517 -0.7932 -9.0691 2.5189 2.33174e-006 3.41821e-006 2.50271e-006 0.8272 -3.3923 0.5977 -9.54166e-015 1.98785e-015 -1.98785e-015 0.565 -2.3158 0.4082 2.74894e-007 -2.73516e-006 -1.65085e-006 -0.916 -9.2044 0.2193 2.33174e-006 3.41821e-006 2.50271e-006 -0.0117 -4.1944 -0.0248 0.0129858 0.00232727 -9.41663e-005 -0.0071 -2.3249 -0.0142 4.93908e-006 4.68203e-006 3.35475e-006 -0.6113 -8.7231 -2.0637 2.33174e-006 3.41821e-006 2.50271e-006 0.1927 -3.8059 -0.2383 0.0163603 0.00303736 -0.000880729 0.1091 -2.1688 -0.1362 2.60717e-006 6.94804e-007 8.5196e-007 0.6151 -8.0947 -3.564 2.33174e-006 3.41821e-006 2.50271e-006 0.4882 -2.341 -0.6462 0.0146105 0.00367831 -0.00327887 0.3574 -1.7166 -0.4742 -2.75087e-007 1.85348e-006 1.65085e-006 1.4199 -1.8761 1.4221 2.33174e-006 3.41821e-006 2.50271e-006 1.1472 -3.4929 2.6336 -9.54166e-015 1.98785e-015 -1.98785e-015 0.8229 -2.3 1.6571 2.74894e-007 -2.73516e-006 -1.65085e-006 -9.412 3.9771 -0.7758 -41.2648 -52.4842 -42.8728 -0.7531 -40.938 0 118.583 38.0386 -109.217 0 -40.1986 0 -25.316 9.27903 31.2122 -1.42109e-014 -4.4182 9.239 7.95139e-016 -6.36111e-015 -0 9.4119 3.9773 -0.7758 17.7891 -54.0845 15.5629 0.7532 -40.9383 0 -114.97 36.5959 112.84 0 -40.1986 -1.42109e-014 22.6431 7.35962 -29.7194 -1.42109e-014 -4.4182 9.239 2.08513e-005 -1.03642e-005 6.57385e-006 
